<svg width="60" height="17" viewBox="0 0 60 17" fill="none" xmlns="http://www.w3.org/2000/svg">
<path d="M5.70419 16.1995C3.96886 16.1995 2.63569 15.7593 1.70469 14.879C0.773695 13.9923 0.308195 12.6402 0.308195 10.8225C0.308195 8.98583 0.805361 7.6305 1.79969 6.7565C2.79403 5.8825 4.20003 5.4455 6.01769 5.4455C6.86636 5.4455 7.63903 5.52467 8.3357 5.683V8.077C8.00636 8.01367 7.68653 7.96617 7.37619 7.9345C7.06586 7.90283 6.75236 7.887 6.4357 7.887C5.39703 7.887 4.63703 8.11183 4.1557 8.5615C3.67436 9.01117 3.4337 9.75533 3.4337 10.794C3.4337 11.8643 3.66486 12.6275 4.12719 13.0835C4.58953 13.5332 5.27353 13.758 6.1792 13.758C6.77453 13.758 7.49336 13.6408 8.3357 13.4065V15.8005C7.5377 16.0665 6.66053 16.1995 5.70419 16.1995ZM12.3726 16.19C11.3086 16.19 10.4789 15.9145 9.8836 15.3635C9.2946 14.8125 9.0001 14.0873 9.0001 13.188C9.0001 12.2127 9.33893 11.4495 10.0166 10.8985C10.6943 10.3412 11.7963 10.0118 13.3226 9.9105L15.0136 9.768V9.6255C15.0136 8.90983 14.8331 8.419 14.4721 8.153C14.1174 7.88067 13.5094 7.7445 12.6481 7.7445C12.2491 7.7445 11.7963 7.77933 11.2896 7.849C10.7829 7.91233 10.2984 8.01683 9.8361 8.1625V5.8825C10.3428 5.73683 10.8969 5.62917 11.4986 5.5595C12.1066 5.4835 12.6703 5.4455 13.1896 5.4455C14.2916 5.4455 15.1941 5.58167 15.8971 5.854C16.6001 6.12633 17.1194 6.58233 17.4551 7.222C17.7971 7.85533 17.9681 8.71983 17.9681 9.8155V16H15.4791L15.2701 14.9645H15.1276C14.8109 15.3888 14.4119 15.6992 13.9306 15.8955C13.4556 16.0918 12.9363 16.19 12.3726 16.19ZM11.9831 12.8935C11.9831 13.6852 12.4423 14.081 13.3606 14.081C13.6393 14.081 13.9243 14.0335 14.2156 13.9385C14.5069 13.8372 14.7729 13.6662 15.0136 13.4255V11.4685L13.6266 11.5825C13.0439 11.6332 12.6228 11.7693 12.3631 11.991C12.1098 12.2063 11.9831 12.5072 11.9831 12.8935ZM19.7654 16V5.607H22.2449L22.4729 6.9465H22.6249C22.9162 6.4335 23.3025 6.05983 23.7839 5.8255C24.2652 5.58483 24.794 5.4645 25.3704 5.4645C25.5287 5.4645 25.6807 5.47083 25.8264 5.4835C25.972 5.49617 26.1019 5.51517 26.2159 5.5405V8.2765C26.0575 8.24483 25.8865 8.22583 25.7029 8.2195C25.5255 8.20683 25.3545 8.2005 25.1899 8.2005C24.7465 8.2005 24.3 8.286 23.8504 8.457C23.4007 8.62167 23.046 8.8655 22.7864 9.1885V16H19.7654ZM32.0275 16.19C30.7735 16.19 29.8077 15.8797 29.13 15.259C28.4587 14.632 28.123 13.6408 28.123 12.2855V7.9915H26.432V5.607H28.123L28.674 1.94H31.144V5.607H33.88V7.9915H31.144V11.8105C31.144 12.5262 31.277 13.0202 31.543 13.2925C31.8153 13.5648 32.2523 13.701 32.854 13.701C33.1453 13.701 33.5095 13.6598 33.9465 13.5775V15.9715C33.6742 16.0348 33.367 16.0855 33.025 16.1235C32.683 16.1678 32.3505 16.19 32.0275 16.19ZM39.5138 16.1995C37.9621 16.1995 36.7303 15.7562 35.8183 14.8695C34.9063 13.9765 34.4503 12.6307 34.4503 10.832C34.4503 9.02067 34.8968 7.67167 35.7898 6.785C36.6828 5.892 37.9241 5.4455 39.5138 5.4455C41.1035 5.4455 42.3448 5.892 43.2378 6.785C44.1308 7.678 44.5773 9.02067 44.5773 10.813C44.5773 12.618 44.1213 13.967 43.2093 14.86C42.2973 15.753 41.0655 16.1995 39.5138 16.1995ZM39.5138 13.9005C40.1535 13.9005 40.6475 13.6852 40.9958 13.2545C41.3505 12.8175 41.5278 12.0132 41.5278 10.8415C41.5278 9.6445 41.3505 8.8275 40.9958 8.3905C40.6411 7.9535 40.1471 7.735 39.5138 7.735C38.8805 7.735 38.3865 7.9535 38.0318 8.3905C37.6771 8.82117 37.4998 9.6255 37.4998 10.8035C37.4998 11.9942 37.674 12.808 38.0223 13.245C38.377 13.682 38.8741 13.9005 39.5138 13.9005ZM45.9564 16V0.647999H48.9774V16H45.9564ZM53.705 16.19C52.641 16.19 51.8114 15.9145 51.216 15.3635C50.627 14.8125 50.3325 14.0873 50.3325 13.188C50.3325 12.2127 50.6714 11.4495 51.349 10.8985C52.0267 10.3412 53.1287 10.0118 54.655 9.9105L56.346 9.768V9.6255C56.346 8.90983 56.1655 8.419 55.8045 8.153C55.4499 7.88067 54.8419 7.7445 53.9805 7.7445C53.5815 7.7445 53.1287 7.77933 52.622 7.849C52.1154 7.91233 51.6309 8.01683 51.1685 8.1625V5.8825C51.6752 5.73683 52.2294 5.62917 52.831 5.5595C53.439 5.4835 54.0027 5.4455 54.522 5.4455C55.624 5.4455 56.5265 5.58167 57.2295 5.854C57.9325 6.12633 58.4519 6.58233 58.7875 7.222C59.1295 7.85533 59.3005 8.71983 59.3005 9.8155V16H56.8115L56.6025 14.9645H56.46C56.1434 15.3888 55.7444 15.6992 55.263 15.8955C54.788 16.0918 54.2687 16.19 53.705 16.19ZM53.3155 12.8935C53.3155 13.6852 53.7747 14.081 54.693 14.081C54.9717 14.081 55.2567 14.0335 55.548 13.9385C55.8394 13.8372 56.1054 13.6662 56.346 13.4255V11.4685L54.959 11.5825C54.3764 11.6332 53.9552 11.7693 53.6955 11.991C53.4422 12.2063 53.3155 12.5072 53.3155 12.8935Z" fill="#E3662B"/>
</svg>
