<svg width="50" height="21" viewBox="0 0 50 21" fill="none" xmlns="http://www.w3.org/2000/svg">
<path d="M4.30649 16.1805C3.54016 16.1805 2.83082 16.0063 2.17849 15.658C1.53249 15.3097 1.01316 14.7555 0.620489 13.9955C0.234155 13.2355 0.0409886 12.2443 0.0409886 11.022C0.0409886 9.21067 0.522322 7.82683 1.48499 6.8705C2.44766 5.91417 3.85682 5.436 5.71249 5.436C5.92149 5.436 6.12732 5.4455 6.32999 5.4645C6.53899 5.47717 6.73216 5.493 6.90949 5.512V0.647999H9.93999V16H7.39399L7.21349 14.9075H7.07099C6.77332 15.2938 6.39016 15.6042 5.92149 15.8385C5.45916 16.0665 4.92082 16.1805 4.30649 16.1805ZM5.19949 13.7105C5.50982 13.7105 5.81699 13.6535 6.12099 13.5395C6.43132 13.4255 6.69416 13.2482 6.90949 13.0075V7.8585C6.74482 7.8205 6.55482 7.792 6.33949 7.773C6.12416 7.74767 5.91199 7.735 5.70299 7.735C4.83532 7.735 4.18299 7.96933 3.74599 8.438C3.30899 8.90667 3.09049 9.68883 3.09049 10.7845C3.09049 11.5382 3.17916 12.1303 3.35649 12.561C3.53382 12.9853 3.77766 13.283 4.08799 13.454C4.40466 13.625 4.77516 13.7105 5.19949 13.7105ZM11.8254 16V5.607H14.3049L14.5329 6.9465H14.6849C14.9763 6.4335 15.3626 6.05983 15.8439 5.8255C16.3253 5.58483 16.8541 5.4645 17.4304 5.4645C17.5888 5.4645 17.7408 5.47083 17.8864 5.4835C18.0321 5.49617 18.1619 5.51517 18.2759 5.5405V8.2765C18.1176 8.24483 17.9466 8.22583 17.7629 8.2195C17.5856 8.20683 17.4146 8.2005 17.2499 8.2005C16.8066 8.2005 16.3601 8.286 15.9104 8.457C15.4608 8.62167 15.1061 8.8655 14.8464 9.1885V16H11.8254ZM23.6228 16.1995C22.0711 16.1995 20.8393 15.7562 19.9273 14.8695C19.0153 13.9765 18.5593 12.6307 18.5593 10.832C18.5593 9.02067 19.0058 7.67167 19.8988 6.785C20.7918 5.892 22.0331 5.4455 23.6228 5.4455C25.2125 5.4455 26.4538 5.892 27.3468 6.785C28.2398 7.678 28.6863 9.02067 28.6863 10.813C28.6863 12.618 28.2303 13.967 27.3183 14.86C26.4063 15.753 25.1745 16.1995 23.6228 16.1995ZM23.6228 13.9005C24.2625 13.9005 24.7565 13.6852 25.1048 13.2545C25.4595 12.8175 25.6368 12.0132 25.6368 10.8415C25.6368 9.6445 25.4595 8.8275 25.1048 8.3905C24.7501 7.9535 24.2561 7.735 23.6228 7.735C22.9895 7.735 22.4955 7.9535 22.1408 8.3905C21.7861 8.82117 21.6088 9.6255 21.6088 10.8035C21.6088 11.9942 21.783 12.808 22.1313 13.245C22.486 13.682 22.9831 13.9005 23.6228 13.9005ZM30.084 20.18V5.607H32.63L32.8105 6.7185H32.953C33.2507 6.33217 33.6307 6.025 34.093 5.797C34.5617 5.56267 35.1032 5.4455 35.7175 5.4455C36.4838 5.4455 37.19 5.61967 37.836 5.968C38.482 6.31 38.9982 6.861 39.3845 7.621C39.7772 8.381 39.9735 9.37533 39.9735 10.604C39.9735 12.4153 39.4922 13.7992 38.5295 14.7555C37.5732 15.7118 36.1672 16.19 34.3115 16.19C34.1025 16.19 33.8935 16.1805 33.6845 16.1615C33.4818 16.1488 33.2887 16.133 33.105 16.114V20.18H30.084ZM34.3115 13.891C35.1855 13.891 35.841 13.6567 36.278 13.188C36.715 12.7193 36.9335 11.9372 36.9335 10.8415C36.9335 10.0815 36.8417 9.48933 36.658 9.065C36.4807 8.64067 36.2337 8.343 35.917 8.172C35.6067 8.001 35.2425 7.9155 34.8245 7.9155C34.5142 7.9155 34.2038 7.9725 33.8935 8.0865C33.5895 8.2005 33.3267 8.37783 33.105 8.6185V13.7675C33.276 13.8055 33.4692 13.8372 33.6845 13.8625C33.8998 13.8815 34.1088 13.891 34.3115 13.891ZM40.6207 16V14.0905L45.3137 7.9915H40.7252V5.607H49.0472V7.5165L44.3542 13.6155H49.1422V16H40.6207Z" fill="#FF75BB"/>
</svg>
