<svg width="18" height="20" viewBox="0 0 18 20" fill="none" xmlns="http://www.w3.org/2000/svg">
<path d="M4.36845 19.37C3.81745 19.37 3.24112 19.3352 2.63945 19.2655C2.03779 19.2022 1.45512 19.0945 0.891453 18.9425V16.577C1.46779 16.7353 2.03145 16.8525 2.58245 16.9285C3.13345 17.0045 3.64962 17.0425 4.13095 17.0425C5.14429 17.0425 5.87895 16.8525 6.33495 16.4725C6.79729 16.0925 7.02845 15.4592 7.02845 14.5725V13.8885H6.88595C6.58829 14.2558 6.21145 14.544 5.75545 14.753C5.29945 14.962 4.78012 15.0665 4.19745 15.0665C3.48812 15.0665 2.82629 14.8892 2.21195 14.5345C1.59762 14.1798 1.10045 13.6288 0.720453 12.8815C0.346786 12.1342 0.159953 11.1778 0.159953 10.0125C0.159953 8.22017 0.647619 6.84583 1.62295 5.8895C2.59829 4.92683 4.07712 4.4455 6.05945 4.4455C6.72445 4.4455 7.41479 4.49617 8.13045 4.5975C8.84612 4.6925 9.48895 4.835 10.059 5.025V14.0215C10.059 15.9025 9.59029 17.2642 8.65295 18.1065C7.71562 18.9488 6.28745 19.37 4.36845 19.37ZM5.34695 12.606C5.65095 12.606 5.95179 12.5553 6.24945 12.454C6.54712 12.3527 6.80679 12.1943 7.02845 11.979V6.868C6.86379 6.83 6.67379 6.79833 6.45845 6.773C6.24945 6.74767 6.02779 6.735 5.79345 6.735C4.95745 6.735 4.31779 6.96933 3.87445 7.438C3.43112 7.90033 3.20945 8.673 3.20945 9.756C3.20945 10.858 3.40262 11.6085 3.78895 12.0075C4.18162 12.4065 4.70095 12.606 5.34695 12.606ZM14.0583 15V4.5405L10.8663 6.7445V3.866L15.1603 0.8925H17.1458V15H14.0583Z" fill="#C3170C"/>
</svg>
