<svg width="21" height="16" viewBox="0 0 21 16" fill="none" xmlns="http://www.w3.org/2000/svg">
<path d="M4.43974 15.37C3.88874 15.37 3.31241 15.3352 2.71074 15.2655C2.10908 15.2022 1.52641 15.0945 0.962742 14.9425V12.577C1.53908 12.7353 2.10274 12.8525 2.65374 12.9285C3.20474 13.0045 3.72091 13.0425 4.20224 13.0425C5.21558 13.0425 5.95024 12.8525 6.40624 12.4725C6.86858 12.0925 7.09974 11.4592 7.09974 10.5725V9.8885H6.95724C6.65958 10.2558 6.28274 10.544 5.82674 10.753C5.37074 10.962 4.85141 11.0665 4.26874 11.0665C3.55941 11.0665 2.89758 10.8892 2.28324 10.5345C1.66891 10.1798 1.17174 9.62883 0.791742 8.8815C0.418075 8.13417 0.231242 7.17783 0.231242 6.0125C0.231242 4.22017 0.718908 2.84583 1.69424 1.8895C2.66958 0.926833 4.14841 0.445499 6.13074 0.445499C6.79574 0.445499 7.48608 0.496166 8.20174 0.5975C8.91741 0.6925 9.56024 0.835 10.1302 1.025V10.0215C10.1302 11.9025 9.66158 13.2642 8.72424 14.1065C7.78691 14.9488 6.35874 15.37 4.43974 15.37ZM5.41824 8.606C5.72224 8.606 6.02308 8.55533 6.32074 8.454C6.61841 8.35267 6.87808 8.19433 7.09974 7.979V2.868C6.93508 2.83 6.74508 2.79833 6.52974 2.773C6.32074 2.74767 6.09908 2.735 5.86474 2.735C5.02874 2.735 4.38908 2.96933 3.94574 3.438C3.50241 3.90033 3.28074 4.673 3.28074 5.756C3.28074 6.858 3.47391 7.6085 3.86024 8.0075C4.25291 8.4065 4.77224 8.606 5.41824 8.606ZM17.2502 11.1995C15.2932 11.1995 13.8524 10.772 12.9277 9.917C12.003 9.062 11.5407 7.68767 11.5407 5.794C11.5407 4.07133 11.9587 2.75083 12.7947 1.8325C13.637 0.907833 14.8277 0.445499 16.3667 0.445499C17.8424 0.445499 18.9634 0.910999 19.7297 1.842C20.496 2.76667 20.8792 4.11567 20.8792 5.889V6.6775H14.5712C14.6155 7.50083 14.8657 8.08033 15.3217 8.416C15.7777 8.74533 16.563 8.91 17.6777 8.91C18.083 8.91 18.5074 8.8815 18.9507 8.8245C19.4004 8.76117 19.85 8.67883 20.2997 8.5775V10.848C19.7424 10.9747 19.2167 11.0633 18.7227 11.114C18.2287 11.171 17.7379 11.1995 17.2502 11.1995ZM16.3382 2.3645C15.7745 2.3645 15.3407 2.55133 15.0367 2.925C14.739 3.29867 14.5807 3.97 14.5617 4.939H18.0577C18.0387 3.97633 17.8835 3.30817 17.5922 2.9345C17.3072 2.5545 16.8892 2.3645 16.3382 2.3645Z" fill="#07AA47"/>
</svg>
