<svg width="88" height="21" viewBox="0 0 88 21" fill="none" xmlns="http://www.w3.org/2000/svg">
<path d="M4.759 20.37C4.208 20.37 3.63167 20.3352 3.03 20.2655C2.42833 20.2022 1.84567 20.0945 1.282 19.9425V17.577C1.85833 17.7353 2.422 17.8525 2.973 17.9285C3.524 18.0045 4.04017 18.0425 4.5215 18.0425C5.53483 18.0425 6.2695 17.8525 6.7255 17.4725C7.18783 17.0925 7.419 16.4592 7.419 15.5725V14.8885H7.2765C6.97883 15.2558 6.602 15.544 6.146 15.753C5.69 15.962 5.17067 16.0665 4.588 16.0665C3.87867 16.0665 3.21683 15.8892 2.6025 15.5345C1.98817 15.1798 1.491 14.6288 1.111 13.8815C0.737334 13.1342 0.550501 12.1778 0.550501 11.0125C0.550501 9.22017 1.03817 7.84583 2.0135 6.8895C2.98883 5.92683 4.46767 5.4455 6.45 5.4455C7.115 5.4455 7.80533 5.49617 8.521 5.5975C9.23667 5.6925 9.8795 5.835 10.4495 6.025V15.0215C10.4495 16.9025 9.98083 18.2642 9.0435 19.1065C8.10617 19.9488 6.678 20.37 4.759 20.37ZM5.7375 13.606C6.0415 13.606 6.34233 13.5553 6.64 13.454C6.93767 13.3527 7.19733 13.1943 7.419 12.979V7.868C7.25433 7.83 7.06433 7.79833 6.849 7.773C6.64 7.74767 6.41833 7.735 6.184 7.735C5.348 7.735 4.70833 7.96933 4.265 8.438C3.82167 8.90033 3.6 9.673 3.6 10.756C3.6 11.858 3.79317 12.6085 4.1795 13.0075C4.57217 13.4065 5.0915 13.606 5.7375 13.606ZM12.335 16V0.647999H15.356V16H12.335ZM21.8315 16.1995C20.2799 16.1995 19.048 15.7562 18.136 14.8695C17.224 13.9765 16.768 12.6307 16.768 10.832C16.768 9.02067 17.2145 7.67167 18.1075 6.785C19.0005 5.892 20.2419 5.4455 21.8315 5.4455C23.4212 5.4455 24.6625 5.892 25.5555 6.785C26.4485 7.678 26.895 9.02067 26.895 10.813C26.895 12.618 26.439 13.967 25.527 14.86C24.615 15.753 23.3832 16.1995 21.8315 16.1995ZM21.8315 13.9005C22.4712 13.9005 22.9652 13.6852 23.3135 13.2545C23.6682 12.8175 23.8455 12.0132 23.8455 10.8415C23.8455 9.6445 23.6682 8.8275 23.3135 8.3905C22.9589 7.9535 22.4649 7.735 21.8315 7.735C21.1982 7.735 20.7042 7.9535 20.3495 8.3905C19.9949 8.82117 19.8175 9.6255 19.8175 10.8035C19.8175 11.9942 19.9917 12.808 20.34 13.245C20.6947 13.682 21.1919 13.9005 21.8315 13.9005ZM32.1995 16.19C31.5345 16.19 30.8505 16.1425 30.1475 16.0475C29.4508 15.9525 28.8016 15.8068 28.2 15.6105V0.647999H31.221V6.6235H31.373C31.6706 6.24983 32.0443 5.96167 32.494 5.759C32.95 5.55 33.4725 5.4455 34.0615 5.4455C34.7835 5.4455 35.4516 5.62283 36.066 5.9775C36.6803 6.33217 37.1711 6.8895 37.5385 7.6495C37.9058 8.4095 38.0895 9.39117 38.0895 10.5945C38.0895 12.4248 37.6018 13.8182 36.6265 14.7745C35.6575 15.7245 34.1818 16.1963 32.1995 16.19ZM32.4655 13.9005C33.3205 13.9005 33.9633 13.6662 34.394 13.1975C34.831 12.7288 35.0495 11.9403 35.0495 10.832C35.0495 10.0783 34.9576 9.4925 34.774 9.0745C34.5966 8.65017 34.3465 8.3525 34.0235 8.1815C33.7068 8.0105 33.3363 7.925 32.912 7.925C32.6016 7.925 32.2976 7.97567 32 8.077C31.7023 8.17833 31.4426 8.3335 31.221 8.5425V13.7485C31.392 13.7928 31.582 13.8308 31.791 13.8625C32.0063 13.8878 32.2311 13.9005 32.4655 13.9005ZM44.2649 16.1995C42.7132 16.1995 41.4814 15.7562 40.5694 14.8695C39.6574 13.9765 39.2014 12.6307 39.2014 10.832C39.2014 9.02067 39.6479 7.67167 40.5409 6.785C41.4339 5.892 42.6752 5.4455 44.2649 5.4455C45.8546 5.4455 47.0959 5.892 47.9889 6.785C48.8819 7.678 49.3284 9.02067 49.3284 10.813C49.3284 12.618 48.8724 13.967 47.9604 14.86C47.0484 15.753 45.8166 16.1995 44.2649 16.1995ZM44.2649 13.9005C44.9046 13.9005 45.3986 13.6852 45.7469 13.2545C46.1016 12.8175 46.2789 12.0132 46.2789 10.8415C46.2789 9.6445 46.1016 8.8275 45.7469 8.3905C45.3922 7.9535 44.8982 7.735 44.2649 7.735C43.6316 7.735 43.1376 7.9535 42.7829 8.3905C42.4282 8.82117 42.2509 9.6255 42.2509 10.8035C42.2509 11.9942 42.4251 12.808 42.7734 13.245C43.1281 13.682 43.6252 13.9005 44.2649 13.9005ZM50.7261 20.18V5.607H53.2721L53.4526 6.7185H53.5951C53.8928 6.33217 54.2728 6.025 54.7351 5.797C55.2038 5.56267 55.7453 5.4455 56.3596 5.4455C57.1259 5.4455 57.8321 5.61967 58.4781 5.968C59.1241 6.31 59.6403 6.861 60.0266 7.621C60.4193 8.381 60.6156 9.37533 60.6156 10.604C60.6156 12.4153 60.1343 13.7992 59.1716 14.7555C58.2153 15.7118 56.8093 16.19 54.9536 16.19C54.7446 16.19 54.5356 16.1805 54.3266 16.1615C54.1239 16.1488 53.9308 16.133 53.7471 16.114V20.18H50.7261ZM54.9536 13.891C55.8276 13.891 56.4831 13.6567 56.9201 13.188C57.3571 12.7193 57.5756 11.9372 57.5756 10.8415C57.5756 10.0815 57.4838 9.48933 57.3001 9.065C57.1228 8.64067 56.8758 8.343 56.5591 8.172C56.2488 8.001 55.8846 7.9155 55.4666 7.9155C55.1563 7.9155 54.8459 7.9725 54.5356 8.0865C54.2316 8.2005 53.9688 8.37783 53.7471 8.6185V13.7675C53.9181 13.8055 54.1113 13.8372 54.3266 13.8625C54.5419 13.8815 54.7509 13.891 54.9536 13.891ZM62.017 16V0.647999H65.038V16H62.017ZM69.7656 16.19C68.7016 16.19 67.8719 15.9145 67.2766 15.3635C66.6876 14.8125 66.3931 14.0873 66.3931 13.188C66.3931 12.2127 66.7319 11.4495 67.4096 10.8985C68.0872 10.3412 69.1892 10.0118 70.7156 9.9105L72.4066 9.768V9.6255C72.4066 8.90983 72.2261 8.419 71.8651 8.153C71.5104 7.88067 70.9024 7.7445 70.0411 7.7445C69.6421 7.7445 69.1892 7.77933 68.6826 7.849C68.1759 7.91233 67.6914 8.01683 67.2291 8.1625V5.8825C67.7357 5.73683 68.2899 5.62917 68.8916 5.5595C69.4996 5.4835 70.0632 5.4455 70.5826 5.4455C71.6846 5.4455 72.5871 5.58167 73.2901 5.854C73.9931 6.12633 74.5124 6.58233 74.8481 7.222C75.1901 7.85533 75.3611 8.71983 75.3611 9.8155V16H72.8721L72.6631 14.9645H72.5206C72.2039 15.3888 71.8049 15.6992 71.3236 15.8955C70.8486 16.0918 70.3292 16.19 69.7656 16.19ZM69.3761 12.8935C69.3761 13.6852 69.8352 14.081 70.7536 14.081C71.0322 14.081 71.3172 14.0335 71.6086 13.9385C71.8999 13.8372 72.1659 13.6662 72.4066 13.4255V11.4685L71.0196 11.5825C70.4369 11.6332 70.0157 11.7693 69.7561 11.991C69.5027 12.2063 69.3761 12.5072 69.3761 12.8935ZM79.6663 16L76.0183 5.607H79.1818L81.6328 13.3305L84.1313 5.607H87.1143L81.9843 20.18H79.0108L80.5023 16H79.6663Z" fill="#FB0735"/>
</svg>
