<svg width="60" height="21" viewBox="0 0 60 21" fill="none" xmlns="http://www.w3.org/2000/svg">
<path d="M5.12009 20.37C4.56909 20.37 3.99276 20.3352 3.39109 20.2655C2.78943 20.2022 2.20676 20.0945 1.64309 19.9425V17.577C2.21943 17.7353 2.78309 17.8525 3.33409 17.9285C3.88509 18.0045 4.40126 18.0425 4.88259 18.0425C5.89593 18.0425 6.63059 17.8525 7.08659 17.4725C7.54893 17.0925 7.78009 16.4592 7.78009 15.5725V14.8885H7.63759C7.33993 15.2558 6.96309 15.544 6.50709 15.753C6.05109 15.962 5.53176 16.0665 4.94909 16.0665C4.23976 16.0665 3.57793 15.8892 2.96359 15.5345C2.34926 15.1798 1.85209 14.6288 1.47209 13.8815C1.09843 13.1342 0.911594 12.1778 0.911594 11.0125C0.911594 9.22017 1.39926 7.84583 2.37459 6.8895C3.34993 5.92683 4.82876 5.4455 6.81109 5.4455C7.47609 5.4455 8.16643 5.49617 8.88209 5.5975C9.59776 5.6925 10.2406 5.835 10.8106 6.025V15.0215C10.8106 16.9025 10.3419 18.2642 9.40459 19.1065C8.46726 19.9488 7.03909 20.37 5.12009 20.37ZM6.09859 13.606C6.40259 13.606 6.70343 13.5553 7.00109 13.454C7.29876 13.3527 7.55843 13.1943 7.78009 12.979V7.868C7.61543 7.83 7.42543 7.79833 7.21009 7.773C7.00109 7.74767 6.77943 7.735 6.54509 7.735C5.70909 7.735 5.06943 7.96933 4.62609 8.438C4.18276 8.90033 3.96109 9.673 3.96109 10.756C3.96109 11.858 4.15426 12.6085 4.54059 13.0075C4.93326 13.4065 5.45259 13.606 6.09859 13.606ZM15.7455 16.1995C15.1502 16.1995 14.5707 16.1615 14.007 16.0855C13.4434 16.0095 12.9177 15.8955 12.43 15.7435V13.5205C13.4624 13.8308 14.5549 13.986 15.7075 13.986C16.3915 13.986 16.8729 13.8973 17.1515 13.72C17.4365 13.5363 17.579 13.283 17.579 12.96C17.579 12.7067 17.5062 12.5135 17.3605 12.3805C17.2212 12.2412 16.9805 12.1367 16.6385 12.067L14.9475 11.763C13.9722 11.5793 13.2629 11.2405 12.8195 10.7465C12.3762 10.2525 12.1545 9.59067 12.1545 8.761C12.1545 7.76667 12.5535 6.9655 13.3515 6.3575C14.1559 5.7495 15.3877 5.4455 17.047 5.4455C17.5537 5.4455 18.0445 5.474 18.5195 5.531C19.0009 5.588 19.4347 5.66717 19.821 5.7685V7.9915C18.985 7.7635 18.0889 7.6495 17.1325 7.6495C16.2712 7.6495 15.6949 7.754 15.4035 7.963C15.1122 8.172 14.9665 8.41583 14.9665 8.6945C14.9665 8.9225 15.033 9.10617 15.166 9.2455C15.3054 9.38483 15.5492 9.48933 15.8975 9.559L17.5885 9.863C18.5132 10.0403 19.2099 10.357 19.6785 10.813C20.1535 11.269 20.391 11.9498 20.391 12.8555C20.391 13.8942 19.9857 14.7112 19.175 15.3065C18.3707 15.9018 17.2275 16.1995 15.7455 16.1995ZM21.6119 16V0.647999H24.6329V6.652H24.7849C25.5133 5.84767 26.4696 5.4455 27.6539 5.4455C28.2873 5.4455 28.8604 5.5785 29.3734 5.8445C29.8864 6.1105 30.2918 6.54433 30.5894 7.146C30.8934 7.74133 31.0454 8.533 31.0454 9.521V16H28.0244V9.7205C28.0244 9.08717 27.8914 8.65333 27.6254 8.419C27.3594 8.17833 27.0016 8.058 26.5519 8.058C26.2099 8.058 25.8648 8.12767 25.5164 8.267C25.1681 8.4 24.8736 8.61217 24.6329 8.9035V16H21.6119ZM37.4357 16.1995C35.884 16.1995 34.6522 15.7562 33.7402 14.8695C32.8282 13.9765 32.3722 12.6307 32.3722 10.832C32.3722 9.02067 32.8187 7.67167 33.7117 6.785C34.6047 5.892 35.846 5.4455 37.4357 5.4455C39.0253 5.4455 40.2667 5.892 41.1597 6.785C42.0527 7.678 42.4992 9.02067 42.4992 10.813C42.4992 12.618 42.0432 13.967 41.1312 14.86C40.2192 15.753 38.9873 16.1995 37.4357 16.1995ZM37.4357 13.9005C38.0753 13.9005 38.5693 13.6852 38.9177 13.2545C39.2723 12.8175 39.4497 12.0132 39.4497 10.8415C39.4497 9.6445 39.2723 8.8275 38.9177 8.3905C38.563 7.9535 38.069 7.735 37.4357 7.735C36.8023 7.735 36.3083 7.9535 35.9537 8.3905C35.599 8.82117 35.4217 9.6255 35.4217 10.8035C35.4217 11.9942 35.5958 12.808 35.9442 13.245C36.2988 13.682 36.796 13.9005 37.4357 13.9005ZM45.7547 16L42.9522 5.607H45.8212L47.6072 12.77L49.5452 5.607H52.8892L54.7607 12.656L56.5847 5.607H59.3302L56.5562 16H53.2027L51.1792 8.4855L49.0987 16H45.7547Z" fill="#EC7D00"/>
</svg>
