<svg width="65" height="21" viewBox="0 0 65 21" fill="none" xmlns="http://www.w3.org/2000/svg">
<path d="M5.45031 16.1995C3.89864 16.1995 2.66681 15.7562 1.75481 14.8695C0.842808 13.9765 0.386808 12.6307 0.386808 10.832C0.386808 9.02067 0.833308 7.67167 1.72631 6.785C2.61931 5.892 3.86064 5.4455 5.45031 5.4455C7.03998 5.4455 8.28131 5.892 9.17431 6.785C10.0673 7.678 10.5138 9.02067 10.5138 10.813C10.5138 12.618 10.0578 13.967 9.14581 14.86C8.23381 15.753 7.00198 16.1995 5.45031 16.1995ZM5.45031 13.9005C6.08997 13.9005 6.58397 13.6852 6.93231 13.2545C7.28697 12.8175 7.46431 12.0132 7.46431 10.8415C7.46431 9.6445 7.28697 8.8275 6.93231 8.3905C6.57764 7.9535 6.08364 7.735 5.45031 7.735C4.81698 7.735 4.32297 7.9535 3.96831 8.3905C3.61364 8.82117 3.43631 9.6255 3.43631 10.8035C3.43631 11.9942 3.61047 12.808 3.95881 13.245C4.31348 13.682 4.81064 13.9005 5.45031 13.9005ZM20.0521 20.37C19.5011 20.37 18.9248 20.3352 18.3231 20.2655C17.7214 20.2022 17.1388 20.0945 16.5751 19.9425V17.577C17.1514 17.7353 17.7151 17.8525 18.2661 17.9285C18.8171 18.0045 19.3333 18.0425 19.8146 18.0425C20.8279 18.0425 21.5626 17.8525 22.0186 17.4725C22.4809 17.0925 22.7121 16.4592 22.7121 15.5725V14.8885H22.5696C22.2719 15.2558 21.8951 15.544 21.4391 15.753C20.9831 15.962 20.4638 16.0665 19.8811 16.0665C19.1718 16.0665 18.5099 15.8892 17.8956 15.5345C17.2813 15.1798 16.7841 14.6288 16.4041 13.8815C16.0304 13.1342 15.8436 12.1778 15.8436 11.0125C15.8436 9.22017 16.3313 7.84583 17.3066 6.8895C18.2819 5.92683 19.7608 5.4455 21.7431 5.4455C22.4081 5.4455 23.0984 5.49617 23.8141 5.5975C24.5298 5.6925 25.1726 5.835 25.7426 6.025V15.0215C25.7426 16.9025 25.2739 18.2642 24.3366 19.1065C23.3993 19.9488 21.9711 20.37 20.0521 20.37ZM21.0306 13.606C21.3346 13.606 21.6354 13.5553 21.9331 13.454C22.2308 13.3527 22.4904 13.1943 22.7121 12.979V7.868C22.5474 7.83 22.3574 7.79833 22.1421 7.773C21.9331 7.74767 21.7114 7.735 21.4771 7.735C20.6411 7.735 20.0014 7.96933 19.5581 8.438C19.1148 8.90033 18.8931 9.673 18.8931 10.756C18.8931 11.858 19.0863 12.6085 19.4726 13.0075C19.8653 13.4065 20.3846 13.606 21.0306 13.606ZM27.6281 16V0.647999H30.6491V16H27.6281ZM37.1246 16.1995C35.573 16.1995 34.3411 15.7562 33.4291 14.8695C32.5171 13.9765 32.0611 12.6307 32.0611 10.832C32.0611 9.02067 32.5076 7.67167 33.4006 6.785C34.2936 5.892 35.535 5.4455 37.1246 5.4455C38.7143 5.4455 39.9556 5.892 40.8486 6.785C41.7416 7.678 42.1881 9.02067 42.1881 10.813C42.1881 12.618 41.7321 13.967 40.8201 14.86C39.9081 15.753 38.6763 16.1995 37.1246 16.1995ZM37.1246 13.9005C37.7643 13.9005 38.2583 13.6852 38.6066 13.2545C38.9613 12.8175 39.1386 12.0132 39.1386 10.8415C39.1386 9.6445 38.9613 8.8275 38.6066 8.3905C38.252 7.9535 37.758 7.735 37.1246 7.735C36.4913 7.735 35.9973 7.9535 35.6426 8.3905C35.288 8.82117 35.1106 9.6255 35.1106 10.8035C35.1106 11.9942 35.2848 12.808 35.6331 13.245C35.9878 13.682 36.485 13.9005 37.1246 13.9005ZM47.4926 16.19C46.8276 16.19 46.1436 16.1425 45.4406 16.0475C44.7439 15.9525 44.0947 15.8068 43.4931 15.6105V0.647999H46.5141V6.6235H46.6661C46.9637 6.24983 47.3374 5.96167 47.7871 5.759C48.2431 5.55 48.7656 5.4455 49.3546 5.4455C50.0766 5.4455 50.7447 5.62283 51.3591 5.9775C51.9734 6.33217 52.4642 6.8895 52.8316 7.6495C53.1989 8.4095 53.3826 9.39117 53.3826 10.5945C53.3826 12.4248 52.8949 13.8182 51.9196 14.7745C50.9506 15.7245 49.4749 16.1963 47.4926 16.19ZM47.7586 13.9005C48.6136 13.9005 49.2564 13.6662 49.6871 13.1975C50.1241 12.7288 50.3426 11.9403 50.3426 10.832C50.3426 10.0783 50.2507 9.4925 50.0671 9.0745C49.8897 8.65017 49.6396 8.3525 49.3166 8.1815C48.9999 8.0105 48.6294 7.925 48.2051 7.925C47.8947 7.925 47.5907 7.97567 47.2931 8.077C46.9954 8.17833 46.7357 8.3335 46.5141 8.5425V13.7485C46.6851 13.7928 46.8751 13.8308 47.0841 13.8625C47.2994 13.8878 47.5242 13.9005 47.7586 13.9005ZM59.558 16.1995C58.0063 16.1995 56.7745 15.7562 55.8625 14.8695C54.9505 13.9765 54.4945 12.6307 54.4945 10.832C54.4945 9.02067 54.941 7.67167 55.834 6.785C56.727 5.892 57.9683 5.4455 59.558 5.4455C61.1477 5.4455 62.389 5.892 63.282 6.785C64.175 7.678 64.6215 9.02067 64.6215 10.813C64.6215 12.618 64.1655 13.967 63.2535 14.86C62.3415 15.753 61.1097 16.1995 59.558 16.1995ZM59.558 13.9005C60.1977 13.9005 60.6917 13.6852 61.04 13.2545C61.3947 12.8175 61.572 12.0132 61.572 10.8415C61.572 9.6445 61.3947 8.8275 61.04 8.3905C60.6853 7.9535 60.1913 7.735 59.558 7.735C58.9247 7.735 58.4307 7.9535 58.076 8.3905C57.7213 8.82117 57.544 9.6255 57.544 10.8035C57.544 11.9942 57.7182 12.808 58.0665 13.245C58.4212 13.682 58.9183 13.9005 59.558 13.9005Z" fill="#1E4B9B"/>
</svg>
