<svg width="49" height="16" viewBox="0 0 49 16" fill="none" xmlns="http://www.w3.org/2000/svg">
<path d="M7.64625 15.18V10.012H7.50375C7.20608 10.3793 6.82925 10.6675 6.37325 10.8765C5.91725 11.0855 5.39791 11.19 4.81525 11.19C4.08691 11.19 3.41558 11.0127 2.80125 10.658C2.19325 10.297 1.70241 9.73967 1.32875 8.986C0.961413 8.226 0.777746 7.24433 0.777746 6.041C0.777746 4.20433 1.26541 2.81417 2.24075 1.8705C3.21608 0.9205 4.69175 0.445499 6.66775 0.445499C7.33908 0.445499 8.03258 0.496166 8.74825 0.5975C9.46391 0.6925 10.1067 0.835 10.6767 1.025V15.18H7.64625ZM5.96475 8.7105C6.26875 8.7105 6.56958 8.65983 6.86725 8.5585C7.16491 8.45717 7.42458 8.29883 7.64625 8.0835V2.868C7.48158 2.83 7.29158 2.79833 7.07625 2.773C6.86091 2.74767 6.63608 2.735 6.40175 2.735C5.57208 2.735 4.93558 2.96933 4.49225 3.438C4.04891 3.90667 3.82725 4.692 3.82725 5.794C3.82725 6.554 3.91591 7.14617 4.09325 7.5705C4.27058 7.9885 4.52075 8.283 4.84375 8.454C5.16675 8.625 5.54041 8.7105 5.96475 8.7105ZM16.0582 11.1805C15.3679 11.1805 14.7535 11.0475 14.2152 10.7815C13.6769 10.5092 13.2525 10.0753 12.9422 9.48C12.6319 8.88467 12.4767 8.09617 12.4767 7.1145V0.606999H15.5072V6.9055C15.5072 7.5325 15.637 7.96633 15.8967 8.207C16.1564 8.44767 16.5015 8.568 16.9322 8.568C17.2489 8.568 17.5814 8.49833 17.9297 8.359C18.278 8.21967 18.5694 8.0075 18.8037 7.7225V0.606999H21.8247V11H19.3357L19.1267 9.955H18.9937C18.1894 10.772 17.2109 11.1805 16.0582 11.1805ZM28.9392 11.1995C26.9822 11.1995 25.5413 10.772 24.6167 9.917C23.692 9.062 23.2297 7.68767 23.2297 5.794C23.2297 4.07133 23.6477 2.75083 24.4837 1.8325C25.326 0.907833 26.5167 0.445499 28.0557 0.445499C29.5313 0.445499 30.6523 0.910999 31.4187 1.842C32.185 2.76667 32.5682 4.11567 32.5682 5.889V6.6775H26.2602C26.3045 7.50083 26.5547 8.08033 27.0107 8.416C27.4667 8.74533 28.252 8.91 29.3667 8.91C29.772 8.91 30.1963 8.8815 30.6397 8.8245C31.0893 8.76117 31.539 8.67883 31.9887 8.5775V10.848C31.4313 10.9747 30.9057 11.0633 30.4117 11.114C29.9177 11.171 29.4268 11.1995 28.9392 11.1995ZM28.0272 2.3645C27.4635 2.3645 27.0297 2.55133 26.7257 2.925C26.428 3.29867 26.2697 3.97 26.2507 4.939H29.7467C29.7277 3.97633 29.5725 3.30817 29.2812 2.9345C28.9962 2.5545 28.5782 2.3645 28.0272 2.3645ZM33.8637 11V0.606999H36.3622L36.5617 1.671H36.7042C37.4452 0.853999 38.4174 0.445499 39.6207 0.445499C40.1781 0.445499 40.6847 0.553166 41.1407 0.7685C41.5967 0.9775 41.9704 1.3195 42.2617 1.7945C42.7114 1.31317 43.2054 0.967999 43.7437 0.758999C44.2884 0.549999 44.8331 0.445499 45.3777 0.445499C46.0427 0.445499 46.6349 0.581666 47.1542 0.853999C47.6736 1.12 48.0821 1.55383 48.3797 2.1555C48.6774 2.75083 48.8262 3.5425 48.8262 4.5305V11H45.8052V4.692C45.8052 4.07133 45.6786 3.64383 45.4252 3.4095C45.1719 3.16883 44.8457 3.0485 44.4467 3.0485C44.1617 3.0485 43.8736 3.1055 43.5822 3.2195C43.2972 3.32717 43.0471 3.50767 42.8317 3.761C42.8507 3.97633 42.8602 4.20117 42.8602 4.4355V11H39.8962V4.692C39.8962 4.07133 39.7791 3.64383 39.5447 3.4095C39.3104 3.16883 38.9937 3.0485 38.5947 3.0485C38.2844 3.0485 37.9741 3.12133 37.6637 3.267C37.3534 3.40633 37.0937 3.62167 36.8847 3.913V11H33.8637Z" fill="#323333"/>
</svg>
