<svg width="68" height="17" viewBox="0 0 68 17" fill="none" xmlns="http://www.w3.org/2000/svg">
<path d="M0.511771 16V5.607H2.99127L3.21927 6.9465H3.37127C3.6626 6.4335 4.04894 6.05983 4.53027 5.8255C5.01161 5.58483 5.54044 5.4645 6.11677 5.4645C6.27511 5.4645 6.4271 5.47083 6.57277 5.4835C6.71844 5.49617 6.84827 5.51517 6.96227 5.5405V8.2765C6.80394 8.24483 6.63294 8.22583 6.44927 8.2195C6.27194 8.20683 6.10094 8.2005 5.93627 8.2005C5.49294 8.2005 5.04644 8.286 4.59677 8.457C4.1471 8.62167 3.79244 8.8655 3.53277 9.1885V16H0.511771ZM12.9551 16.1995C10.9981 16.1995 9.5573 15.772 8.63264 14.917C7.70797 14.062 7.24564 12.6877 7.24564 10.794C7.24564 9.07133 7.66364 7.75083 8.49964 6.8325C9.34197 5.90783 10.5326 5.4455 12.0716 5.4455C13.5473 5.4455 14.6683 5.911 15.4346 6.842C16.201 7.76667 16.5841 9.11567 16.5841 10.889V11.6775H10.2761C10.3205 12.5008 10.5706 13.0803 11.0266 13.416C11.4826 13.7453 12.268 13.91 13.3826 13.91C13.788 13.91 14.2123 13.8815 14.6556 13.8245C15.1053 13.7612 15.555 13.6788 16.0046 13.5775V15.848C15.4473 15.9747 14.9216 16.0633 14.4276 16.114C13.9336 16.171 13.4428 16.1995 12.9551 16.1995ZM12.0431 7.3645C11.4795 7.3645 11.0456 7.55133 10.7416 7.925C10.444 8.29867 10.2856 8.97 10.2666 9.939H13.7626C13.7436 8.97633 13.5885 8.30817 13.2971 7.9345C13.0121 7.5545 12.5941 7.3645 12.0431 7.3645ZM22.8007 16.1995C21.0654 16.1995 19.7322 15.7593 18.8012 14.879C17.8702 13.9923 17.4047 12.6402 17.4047 10.8225C17.4047 8.98583 17.9019 7.6305 18.8962 6.7565C19.8905 5.8825 21.2965 5.4455 23.1142 5.4455C23.9629 5.4455 24.7355 5.52467 25.4322 5.683V8.077C25.1029 8.01367 24.783 7.96617 24.4727 7.9345C24.1624 7.90283 23.8489 7.887 23.5322 7.887C22.4935 7.887 21.7335 8.11183 21.2522 8.5615C20.7709 9.01117 20.5302 9.75533 20.5302 10.794C20.5302 11.8643 20.7614 12.6275 21.2237 13.0835C21.686 13.5332 22.37 13.758 23.2757 13.758C23.871 13.758 24.5899 13.6408 25.4322 13.4065V15.8005C24.6342 16.0665 23.757 16.1995 22.8007 16.1995ZM31.7518 16.1995C29.7948 16.1995 28.3539 15.772 27.4293 14.917C26.5046 14.062 26.0423 12.6877 26.0423 10.794C26.0423 9.07133 26.4603 7.75083 27.2963 6.8325C28.1386 5.90783 29.3293 5.4455 30.8683 5.4455C32.3439 5.4455 33.4649 5.911 34.2313 6.842C34.9976 7.76667 35.3808 9.11567 35.3808 10.889V11.6775H29.0728C29.1171 12.5008 29.3673 13.0803 29.8233 13.416C30.2793 13.7453 31.0646 13.91 32.1793 13.91C32.5846 13.91 33.0089 13.8815 33.4523 13.8245C33.9019 13.7612 34.3516 13.6788 34.8013 13.5775V15.848C34.2439 15.9747 33.7183 16.0633 33.2243 16.114C32.7303 16.171 32.2394 16.1995 31.7518 16.1995ZM30.8398 7.3645C30.2761 7.3645 29.8423 7.55133 29.5383 7.925C29.2406 8.29867 29.0823 8.97 29.0633 9.939H32.5593C32.5403 8.97633 32.3851 8.30817 32.0938 7.9345C31.8088 7.5545 31.3908 7.3645 30.8398 7.3645ZM36.6763 16V5.607H39.7068V16H36.6763ZM38.1868 4.0965C37.5472 4.0965 37.0753 3.96033 36.7713 3.688C36.4673 3.40933 36.3153 3.01983 36.3153 2.5195C36.3153 2.01917 36.4673 1.62967 36.7713 1.351C37.0753 1.07233 37.5472 0.932999 38.1868 0.932999C38.8265 0.932999 39.2983 1.07233 39.6023 1.351C39.9063 1.62967 40.0583 2.01917 40.0583 2.5195C40.0583 3.01983 39.9063 3.40933 39.6023 3.688C39.2983 3.96033 38.8265 4.0965 38.1868 4.0965ZM46.2109 16.19C44.9569 16.19 43.9911 15.8797 43.3134 15.259C42.6421 14.632 42.3064 13.6408 42.3064 12.2855V7.9915H40.6154V5.607H42.3064L42.8574 1.94H45.3274V5.607H48.0634V7.9915H45.3274V11.8105C45.3274 12.5262 45.4604 13.0202 45.7264 13.2925C45.9988 13.5648 46.4358 13.701 47.0374 13.701C47.3288 13.701 47.6929 13.6598 48.1299 13.5775V15.9715C47.8576 16.0348 47.5504 16.0855 47.2084 16.1235C46.8664 16.1678 46.5339 16.19 46.2109 16.19ZM52.0606 16.19C50.9966 16.19 50.1669 15.9145 49.5716 15.3635C48.9826 14.8125 48.6881 14.0873 48.6881 13.188C48.6881 12.2127 49.0269 11.4495 49.7046 10.8985C50.3822 10.3412 51.4842 10.0118 53.0106 9.9105L54.7016 9.768V9.6255C54.7016 8.90983 54.5211 8.419 54.1601 8.153C53.8054 7.88067 53.1974 7.7445 52.3361 7.7445C51.9371 7.7445 51.4842 7.77933 50.9776 7.849C50.4709 7.91233 49.9864 8.01683 49.5241 8.1625V5.8825C50.0307 5.73683 50.5849 5.62917 51.1866 5.5595C51.7946 5.4835 52.3582 5.4455 52.8776 5.4455C53.9796 5.4455 54.8821 5.58167 55.5851 5.854C56.2881 6.12633 56.8074 6.58233 57.1431 7.222C57.4851 7.85533 57.6561 8.71983 57.6561 9.8155V16H55.1671L54.9581 14.9645H54.8156C54.4989 15.3888 54.0999 15.6992 53.6186 15.8955C53.1436 16.0918 52.6242 16.19 52.0606 16.19ZM51.6711 12.8935C51.6711 13.6852 52.1302 14.081 53.0486 14.081C53.3272 14.081 53.6122 14.0335 53.9036 13.9385C54.1949 13.8372 54.4609 13.6662 54.7016 13.4255V11.4685L53.3146 11.5825C52.7319 11.6332 52.3107 11.7693 52.0511 11.991C51.7977 12.2063 51.6711 12.5072 51.6711 12.8935ZM62.5028 16.1995C61.9075 16.1995 61.328 16.1615 60.7643 16.0855C60.2007 16.0095 59.675 15.8955 59.1873 15.7435V13.5205C60.2197 13.8308 61.3122 13.986 62.4648 13.986C63.1488 13.986 63.6302 13.8973 63.9088 13.72C64.1938 13.5363 64.3363 13.283 64.3363 12.96C64.3363 12.7067 64.2635 12.5135 64.1178 12.3805C63.9785 12.2412 63.7378 12.1367 63.3958 12.067L61.7048 11.763C60.7295 11.5793 60.0202 11.2405 59.5768 10.7465C59.1335 10.2525 58.9118 9.59067 58.9118 8.761C58.9118 7.76667 59.3108 6.9655 60.1088 6.3575C60.9132 5.7495 62.145 5.4455 63.8043 5.4455C64.311 5.4455 64.8018 5.474 65.2768 5.531C65.7582 5.588 66.192 5.66717 66.5783 5.7685V7.9915C65.7423 7.7635 64.8462 7.6495 63.8898 7.6495C63.0285 7.6495 62.4522 7.754 62.1608 7.963C61.8695 8.172 61.7238 8.41583 61.7238 8.6945C61.7238 8.9225 61.7903 9.10617 61.9233 9.2455C62.0627 9.38483 62.3065 9.48933 62.6548 9.559L64.3458 9.863C65.2705 10.0403 65.9672 10.357 66.4358 10.813C66.9108 11.269 67.1483 11.9498 67.1483 12.8555C67.1483 13.8942 66.743 14.7112 65.9323 15.3065C65.128 15.9018 63.9848 16.1995 62.5028 16.1995Z" fill="#A81D83"/>
</svg>
