<svg width="45" height="17" viewBox="0 0 45 17" fill="none" xmlns="http://www.w3.org/2000/svg">
<path d="M4.55768 16L0.90968 5.607H4.07318L6.54318 13.2545L9.02268 5.607H12.0057L8.34818 16H4.55768ZM15.1606 16.19C14.0966 16.19 13.2669 15.9145 12.6716 15.3635C12.0826 14.8125 11.7881 14.0873 11.7881 13.188C11.7881 12.2127 12.1269 11.4495 12.8046 10.8985C13.4822 10.3412 14.5842 10.0118 16.1106 9.9105L17.8016 9.768V9.6255C17.8016 8.90983 17.6211 8.419 17.2601 8.153C16.9054 7.88067 16.2974 7.7445 15.4361 7.7445C15.0371 7.7445 14.5842 7.77933 14.0776 7.849C13.5709 7.91233 13.0864 8.01683 12.6241 8.1625V5.8825C13.1307 5.73683 13.6849 5.62917 14.2866 5.5595C14.8946 5.4835 15.4582 5.4455 15.9776 5.4455C17.0796 5.4455 17.9821 5.58167 18.6851 5.854C19.3881 6.12633 19.9074 6.58233 20.2431 7.222C20.5851 7.85533 20.7561 8.71983 20.7561 9.8155V16H18.2671L18.0581 14.9645H17.9156C17.5989 15.3888 17.1999 15.6992 16.7186 15.8955C16.2436 16.0918 15.7242 16.19 15.1606 16.19ZM14.7711 12.8935C14.7711 13.6852 15.2302 14.081 16.1486 14.081C16.4272 14.081 16.7122 14.0335 17.0036 13.9385C17.2949 13.8372 17.5609 13.6662 17.8016 13.4255V11.4685L16.4146 11.5825C15.8319 11.6332 15.4107 11.7693 15.1511 11.991C14.8977 12.2063 14.7711 12.5072 14.7711 12.8935ZM22.5534 16V0.647999H25.5744V16H22.5534ZM32.0499 16.1995C30.4983 16.1995 29.2664 15.7562 28.3544 14.8695C27.4424 13.9765 26.9864 12.6307 26.9864 10.832C26.9864 9.02067 27.4329 7.67167 28.3259 6.785C29.2189 5.892 30.4603 5.4455 32.0499 5.4455C33.6396 5.4455 34.8809 5.892 35.7739 6.785C36.6669 7.678 37.1134 9.02067 37.1134 10.813C37.1134 12.618 36.6574 13.967 35.7454 14.86C34.8334 15.753 33.6016 16.1995 32.0499 16.1995ZM32.0499 13.9005C32.6896 13.9005 33.1836 13.6852 33.5319 13.2545C33.8866 12.8175 34.0639 12.0132 34.0639 10.8415C34.0639 9.6445 33.8866 8.8275 33.5319 8.3905C33.1773 7.9535 32.6833 7.735 32.0499 7.735C31.4166 7.735 30.9226 7.9535 30.5679 8.3905C30.2133 8.82117 30.0359 9.6255 30.0359 10.8035C30.0359 11.9942 30.2101 12.808 30.5584 13.245C30.9131 13.682 31.4103 13.9005 32.0499 13.9005ZM38.5111 16V5.607H40.9906L41.2186 6.9465H41.3706C41.662 6.4335 42.0483 6.05983 42.5296 5.8255C43.011 5.58483 43.5398 5.4645 44.1161 5.4645C44.2745 5.4645 44.4265 5.47083 44.5721 5.4835C44.7178 5.49617 44.8476 5.51517 44.9616 5.5405V8.2765C44.8033 8.24483 44.6323 8.22583 44.4486 8.2195C44.2713 8.20683 44.1003 8.2005 43.9356 8.2005C43.4923 8.2005 43.0458 8.286 42.5961 8.457C42.1465 8.62167 41.7918 8.8655 41.5321 9.1885V16H38.5111Z" fill="#006766"/>
</svg>
